{
   "accessors" : [
      {
         "bufferView" : 2,
         "byteOffset" : 0,
         "componentType" : 5126,
         "count" : 6784,
         "max" : [ 0.1939721703529358, 0.2844520807266235, 0.3392233550548553, 1 ],
         "min" : [ 0.05637409910559654, 0.08919350802898407, 0.06190747767686844, 1 ],
         "name" : "accessor_color_m0-PolyPaper19_-265024",
         "type" : "VEC4"
      },
      {
         "bufferView" : 2,
         "byteOffset" : 108544,
         "componentType" : 5126,
         "count" : 2480,
         "max" : [ 0.1939721703529358, 0.2844520807266235, 0.3392233550548553, 1 ],
         "min" : [ 0.05637409910559654, 0.08919350802898407, 0.06190747767686844, 1 ],
         "name" : "accessor_color_m1-PolyPaper17_-265030",
         "type" : "VEC4"
      },
      {
         "bufferView" : 0,
         "byteOffset" : 0,
         "componentType" : 5123,
         "count" : 11772,
         "max" : [ 6783 ],
         "min" : [ 0 ],
         "name" : "accessor_indices_0_m0-PolyPaper19_-265024",
         "type" : "SCALAR"
      },
      {
         "bufferView" : 0,
         "byteOffset" : 23544,
         "componentType" : 5123,
         "count" : 4284,
         "max" : [ 2479 ],
         "min" : [ 0 ],
         "name" : "accessor_indices_0_m1-PolyPaper17_-265030",
         "type" : "SCALAR"
      },
      {
         "bufferView" : 1,
         "byteOffset" : 81408,
         "componentType" : 5126,
         "count" : 6784,
         "max" : [ 0.9935547, 1, 0.9935549 ],
         "min" : [ -0.9869796, -1, -0.9869829 ],
         "name" : "accessor_normal_m0-PolyPaper19_-265024",
         "type" : "VEC3"
      },
      {
         "bufferView" : 1,
         "byteOffset" : 192576,
         "componentType" : 5126,
         "count" : 2480,
         "max" : [ 0.9935542000000001, 1, 0.9935539 ],
         "min" : [ -0.98475, -1, -0.986977 ],
         "name" : "accessor_normal_m1-PolyPaper17_-265030",
         "type" : "VEC3"
      },
      {
         "bufferView" : 1,
         "byteOffset" : 0,
         "componentType" : 5126,
         "count" : 6784,
         "max" : [ -0.3668368, 3.179967, -0.9922367 ],
         "min" : [ -1.80348, 1.269912, -2.324397 ],
         "name" : "accessor_position_m0-PolyPaper19_-265024",
         "type" : "VEC3"
      },
      {
         "bufferView" : 1,
         "byteOffset" : 162816,
         "componentType" : 5126,
         "count" : 2480,
         "max" : [ -0.3128369, 1.830194, -0.8100442 ],
         "min" : [ -1.835304, 0.7133938, -2.451921 ],
         "name" : "accessor_position_m1-PolyPaper17_-265030",
         "type" : "VEC3"
      }
   ],
   "asset" : {
      "copyright" : "Unknown",
      "extras" : {
         "GOOGLE_processor_version" : 294144208
      },
      "generator" : "glTF 1-to-2 Upgrader for Google Blocks",
      "version" : "2.0"
   },
   "bufferViews" : [
      {
         "buffer" : 0,
         "byteLength" : 32112,
         "byteOffset" : 0,
         "name" : "ushortBufferView",
         "target" : 34963
      },
      {
         "buffer" : 0,
         "byteLength" : 222336,
         "byteOffset" : 32112,
         "byteStride" : 12,
         "name" : "vec3BufferView",
         "target" : 34962
      },
      {
         "buffer" : 0,
         "byteLength" : 148224,
         "byteOffset" : 254448,
         "byteStride" : 16,
         "name" : "vec4BufferView",
         "target" : 34962
      }
   ],
   "buffers" : [
      {
         "byteLength" : 402672,
         "name" : "model",
         "uri" : "model.bin"
      }
   ],
   "cameras" : [
      {
         "perspective" : {
            "yfov" : 0.7853981633974483,
            "znear" : 0.1000000014901161
         },
         "type" : "perspective"
      }
   ],
   "extensions" : {
      "KHR_lights_punctual" : {
         "lights" : [
            {
               "color" : [ 1, 0.9333333333333333, 0.8666666666666667 ],
               "intensity" : 0.4749999940395355,
               "name" : "headLight",
               "type" : "directional"
            },
            {
               "color" : [ 1, 0.9333333333333333, 0.8666666666666667 ],
               "intensity" : 0.6174999696016314,
               "name" : "keyLight",
               "type" : "directional"
            }
         ]
      }
   },
   "extensionsUsed" : [ "GOOGLE_backgrounds", "GOOGLE_camera_settings", "KHR_lights_punctual" ],
   "extras" : {
      "GOOGLE_initial_camera_motion" : {
         "motionPath" : "FULL_ROTATION"
      },
      "GOOGLE_lighting_rig" : {
         "disableShadows" : false
      }
   },
   "materials" : [
      {
         "alphaMode" : "OPAQUE",
         "doubleSided" : false,
         "name" : "BlocksPaper",
         "pbrMetallicRoughness" : {
            "baseColorFactor" : [ 1, 1, 1, 1 ],
            "metallicFactor" : 0,
            "roughnessFactor" : 0.6
         }
      },
      {
         "alphaMode" : "BLEND",
         "doubleSided" : false,
         "name" : "BlocksGlass",
         "pbrMetallicRoughness" : {
            "baseColorFactor" : [ 0.2, 0.2, 1, 0.3 ],
            "metallicFactor" : 1,
            "roughnessFactor" : 0.4
         }
      },
      {
         "alphaMode" : "OPAQUE",
         "doubleSided" : true,
         "name" : "BlocksGem",
         "pbrMetallicRoughness" : {
            "baseColorFactor" : [ 1, 0.4, 1, 1 ],
            "metallicFactor" : 0,
            "roughnessFactor" : 0.1
         }
      }
   ],
   "meshes" : [
      {
         "name" : "mesh_m0-PolyPaper19_-265024",
         "primitives" : [
            {
               "attributes" : {
                  "COLOR_0" : 0,
                  "NORMAL" : 4,
                  "POSITION" : 6
               },
               "indices" : 2,
               "material" : 0,
               "mode" : 4
            }
         ]
      },
      {
         "name" : "mesh_m1-PolyPaper17_-265030",
         "primitives" : [
            {
               "attributes" : {
                  "COLOR_0" : 1,
                  "NORMAL" : 5,
                  "POSITION" : 7
               },
               "indices" : 3,
               "material" : 0,
               "mode" : 4
            }
         ]
      }
   ],
   "nodes" : [
      {
         "mesh" : 0,
         "name" : "node_MeshObject1453162496-PolyPaper19"
      },
      {
         "mesh" : 1,
         "name" : "node_MeshObject829901824-PolyPaper17"
      },
      {
         "children" : [ 3 ]
      },
      {
         "children" : [ 4 ],
         "extras" : {
            "isTransformNode" : 1
         },
         "translation" : [ -1.032396219951684, 1.823383514805123, -1.6245886395145 ]
      },
      {
         "children" : [ 0, 1 ],
         "translation" : [ 1.032396219951684, -1.823383514805123, 1.6245886395145 ]
      },
      {
         "camera" : 0,
         "children" : [ 6 ],
         "rotation" : [
            -0.06431816382321869,
            0.892092113186887,
            0.1345177066905922,
            0.4265440445943044
         ],
         "translation" : [ 2.678835512899747, 3.450124200498368, -4.751071145455025 ]
      },
      {
         "extensions" : {
            "KHR_lights_punctual" : {
               "light" : 0
            }
         },
         "extras" : {
            "isHeadLight" : 1
         },
         "name" : "headLightNode",
         "translation" : [ -1.882672572595858, 0.9413362862979288, 0.9413362862979288 ]
      },
      {
         "extensions" : {
            "KHR_lights_punctual" : {
               "light" : 1
            }
         },
         "extras" : {
            "isKeyLight" : 1
         },
         "name" : "keyLightNode",
         "rotation" : [ -0.7505326882858236, -0.3752663441429118, 0, 0.5439447166468927 ],
         "scale" : [ 0, 0, 1.901499298321816 ],
         "translation" : [ -2.805649591152477, 6.004204338740286, -3.6460160552028 ]
      }
   ],
   "scene" : 0,
   "scenes" : [
      {
         "extensions" : {
            "GOOGLE_backgrounds" : {
               "color" : [ 0.9333333333333333, 1, 0.3490196078431372 ]
            },
            "GOOGLE_camera_settings" : {
               "pivot" : [ -1.144897972539048, 1.934092198749939, -1.666650897239139 ]
            }
         },
         "extras" : {
            "GOOGLE_camera_index" : {
               "cameraIndex" : 0,
               "nodeIndex" : 5
            },
            "GOOGLE_geometry_data" : {
               "stats" : {
                  "centroid" : [ -0.9041502928306607, 2.201205742096654, -1.744516756880983 ],
                  "radius" : 1.882672572595858,
                  "stdev" : 0.8653621376199535
               },
               "visualCenterPoint" : [ -1.032396219951684, 1.823383514805123, -1.6245886395145 ]
            },
            "GOOGLE_hemi_light" : {
               "groundColor" : [ 0.9333333333333333, 1, 0.3490196078431372 ]
            }
         },
         "name" : "defaultScene",
         "nodes" : [ 2, 5, 7 ]
      }
   ]
}
